<svg width="150" height="150" viewBox="0 0 150 150" fill="none" xmlns="http://www.w3.org/2000/svg">
<path d="M75 0C33.5784 0 0 33.5784 0 75C0 116.422 33.5784 150 75 150C116.422 150 150 116.422 150 75C150 33.5784 116.422 0 75 0ZM102.114 93.2128C100.447 102.09 93.0403 107.939 82.5147 109.628V115C82.5147 119.141 79.1553 122.5 75.0147 122.5C70.8741 122.5 67.5147 119.141 67.5147 115V109.357C63.1044 108.594 58.6084 107.183 54.5947 105.845L52.6613 105.205C48.7256 103.911 46.5772 99.6778 47.8662 95.7422C49.1503 91.8019 53.3691 89.6631 57.3291 90.9472L59.3359 91.6113C63.125 92.8759 67.4269 94.3066 70.9228 94.795C79.5997 96.0303 86.665 94.1747 87.3681 90.4491C87.9297 87.4463 86.7969 85.8644 73.0616 82.2363L70.3759 81.5234C62.6513 79.4238 44.5556 74.5166 47.8759 56.7872C49.5491 47.8997 56.9737 42.0641 67.5147 40.3822V35C67.5147 30.8594 70.8741 27.5 75.0147 27.5C79.1553 27.5 82.5147 30.8594 82.5147 35V40.6244C85.3187 41.1138 88.41 41.8694 92.2753 43.1056C96.2206 44.3653 98.3984 48.5841 97.1387 52.5294C95.8887 56.4794 91.67 58.6769 87.715 57.3925C84.1112 56.245 81.2697 55.5275 79.0234 55.2003C70.3956 53.9794 63.3203 55.8253 62.6222 59.5506C62.2069 61.7578 61.8506 63.6669 74.3019 67.0459L76.8897 67.7344C87.5781 70.5566 105.469 75.2784 102.114 93.2128Z" fill="#C66161"/>
</svg>
