<svg width="141" height="150" viewBox="0 0 141 150" fill="none" xmlns="http://www.w3.org/2000/svg">
<path d="M132.334 24.5156L75.9344 1.07578C74.5023 0.480762 72.0698 0 70.5182 0C68.9578 0 66.5344 0.480762 65.0932 1.07578L8.69324 24.5156C3.43335 26.6807 0 31.8088 0 37.4953C0 112.839 55.5669 150 70.4862 150C85.7677 150 141 112.445 141 37.4953C141 31.8088 137.567 26.6807 132.334 24.5156ZM77.55 75.7049V96.0938C77.55 99.9756 74.3922 103.125 70.5 103.125C66.6078 103.125 63.45 99.9756 63.45 96.0938V75.7049C57.9078 73.0658 54.05 67.471 54.05 60.9375C54.05 51.876 61.4149 44.5312 70.5 44.5312C79.5851 44.5312 86.95 51.876 86.95 60.9375C86.95 67.471 83.0922 73.0658 77.55 75.7049Z" fill="#C66161"/>
</svg>
