<svg width="150" height="150" viewBox="0 0 150 150" fill="none" xmlns="http://www.w3.org/2000/svg">
<path d="M75 0C33.5687 0 0 33.5681 0 75C0 116.431 33.5687 150 75 150C116.431 150 150 116.431 150 75C150 33.5681 116.431 0 75 0ZM101.005 99.5019C99.5306 101.465 97.2797 102.5 94.9994 102.5C93.4319 102.5 91.855 102.012 90.5022 100.996L70.5022 85.9962C68.6175 84.58 67.5044 82.3631 67.5044 80V42.5C67.5044 38.3594 70.8638 35 75.0044 35C79.145 35 82.5044 38.3594 82.5044 42.5V76.25L99.5063 89.0038C102.817 91.4844 103.491 96.1816 101.005 99.5019Z" fill="#C66161"/>
</svg>
